<mxfile host="65bd71144e" modified="2021-01-30T21:48:43.356Z" agent="5.0 (Macintosh; Intel Mac OS X 10_16_0) AppleWebKit/537.36 (KHTML, like Gecko) Code/1.51.1 Chrome/83.0.4103.122 Electron/9.3.3 Safari/537.36" etag="8dubtWfq_QfF35jrd5WY" version="13.10.0" type="embed">
    <diagram id="1ABGxqfdmh3x2Yu3FbC9" name="Page-1">
        <mxGraphModel dx="1122" dy="677" grid="1" gridSize="10" guides="1" tooltips="1" connect="1" arrows="1" fold="1" page="1" pageScale="1" pageWidth="850" pageHeight="1100" math="0" shadow="0">
            <root>
                <mxCell id="0"/>
                <mxCell id="1" parent="0"/>
                <mxCell id="2" value="NOT-Reddit Front End" style="swimlane;fillColor=#1ba1e2;strokeColor=#006EAF;fontColor=#ffffff;" parent="1" vertex="1">
                    <mxGeometry x="40" y="30" width="780" height="590" as="geometry"/>
                </mxCell>
                <mxCell id="3" value="&lt;h1&gt;Not-Reddit&lt;/h1&gt;&lt;div&gt;&lt;br&gt;&lt;/div&gt;" style="text;html=1;strokeColor=none;fillColor=none;spacing=5;spacingTop=-20;whiteSpace=wrap;overflow=hidden;rounded=0;" parent="2" vertex="1">
                    <mxGeometry x="10" y="30" width="730" height="120" as="geometry"/>
                </mxCell>
                <mxCell id="6" value="" style="rounded=0;whiteSpace=wrap;html=1;" parent="2" vertex="1">
                    <mxGeometry x="30" y="170" width="730" height="370" as="geometry"/>
                </mxCell>
                <mxCell id="7" value="VIew Sub-SEIdits" style="rounded=1;whiteSpace=wrap;html=1;" parent="2" vertex="1">
                    <mxGeometry x="40" y="90" width="120" height="60" as="geometry"/>
                </mxCell>
                <mxCell id="8" value="Create Post" style="rounded=1;whiteSpace=wrap;html=1;" parent="2" vertex="1">
                    <mxGeometry x="170" y="90" width="120" height="60" as="geometry"/>
                </mxCell>
                <mxCell id="9" value="Post" style="rounded=1;whiteSpace=wrap;html=1;" parent="2" vertex="1">
                    <mxGeometry x="50" y="190" width="650" height="70" as="geometry"/>
                </mxCell>
                <mxCell id="10" value="Comment(s)" style="shape=callout;whiteSpace=wrap;html=1;perimeter=calloutPerimeter;" parent="2" vertex="1">
                    <mxGeometry x="60" y="280" width="460" height="80" as="geometry"/>
                </mxCell>
                <mxCell id="12" value="Profile" style="rounded=0;whiteSpace=wrap;html=1;" parent="2" vertex="1">
                    <mxGeometry x="640" y="30" width="120" height="60" as="geometry"/>
                </mxCell>
            </root>
        </mxGraphModel>
    </diagram>
</mxfile>